<svg xmlns="http://www.w3.org/2000/svg" xmlns:xlink="http://www.w3.org/1999/xlink" width="50" zoomAndPan="magnify" viewBox="0 0 37.5 37.499999" height="50" preserveAspectRatio="xMidYMid meet" version="1.0"><defs><clipPath id="075eb42a38"><path d="M 22 2.832031 L 31 2.832031 L 31 5 L 22 5 Z M 22 2.832031 " clip-rule="nonzero"/></clipPath><clipPath id="406812a456"><path d="M 2.832031 28 L 33.917969 28 L 33.917969 33.917969 L 2.832031 33.917969 Z M 2.832031 28 " clip-rule="nonzero"/></clipPath></defs><path fill="#194eda" d="M 8.164062 20.835938 L 16.167969 20.835938 L 16.167969 24.835938 L 8.164062 24.835938 Z M 8.164062 20.835938 " fill-opacity="1" fill-rule="nonzero"/><path fill="#194eda" d="M 20.835938 14.167969 L 28.835938 14.167969 L 28.835938 16.832031 L 20.835938 16.832031 Z M 20.835938 14.167969 " fill-opacity="1" fill-rule="nonzero"/><path fill="#194eda" d="M 26.167969 6.164062 L 27.503906 6.164062 L 27.503906 10.164062 L 26.167969 10.164062 Z M 26.167969 6.164062 " fill-opacity="1" fill-rule="nonzero"/><path fill="#194eda" d="M 14.832031 8.164062 C 14.832031 7.429688 14.234375 6.832031 13.5 6.832031 L 10.832031 6.832031 C 10.097656 6.832031 9.5 7.429688 9.5 8.164062 L 9.5 16.835938 L 14.832031 16.835938 Z M 14.832031 8.164062 " fill-opacity="1" fill-rule="nonzero"/><g clip-path="url(#075eb42a38)"><path fill="#194eda" d="M 23.835938 4.832031 C 25.300781 4.832031 28.371094 4.832031 29.835938 4.832031 C 30.386719 4.832031 30.835938 4.382812 30.835938 3.832031 C 30.835938 3.28125 30.386719 2.832031 29.835938 2.832031 L 23.835938 2.832031 C 23.285156 2.832031 22.835938 3.28125 22.835938 3.832031 C 22.835938 4.382812 23.285156 4.832031 23.835938 4.832031 Z M 23.835938 4.832031 " fill-opacity="1" fill-rule="nonzero"/></g><g clip-path="url(#406812a456)"><path fill="#194eda" d="M 2.832031 28.835938 L 2.832031 34.171875 L 34.171875 34.171875 L 34.171875 28.835938 C 32.691406 28.835938 4.558594 28.835938 2.832031 28.835938 Z M 2.832031 28.835938 " fill-opacity="1" fill-rule="nonzero"/></g><path fill="#194eda" d="M 31.554688 11.5 C 31.066406 11.5 16.25 11.5 16.167969 11.5 L 16.167969 16.835938 L 16.832031 16.835938 C 17.203125 16.835938 17.5 17.132812 17.5 17.5 C 17.5 17.867188 17.203125 18.167969 16.832031 18.167969 C 13.707031 18.167969 10.203125 18.167969 7.5 18.167969 C 7.128906 18.167969 6.832031 17.867188 6.832031 17.5 C 6.832031 17.132812 7.128906 16.835938 7.5 16.835938 L 8.164062 16.835938 L 8.164062 11.5 L 5.449219 11.5 L 4.21875 27.503906 L 32.785156 27.503906 Z M 17.5 25.503906 C 17.5 25.871094 17.203125 26.167969 16.832031 26.167969 L 7.5 26.167969 C 7.128906 26.167969 6.832031 25.871094 6.832031 25.503906 L 6.832031 20.167969 C 6.832031 19.800781 7.128906 19.5 7.5 19.5 L 16.832031 19.5 C 17.203125 19.5 17.5 19.800781 17.5 20.167969 Z M 21.5 26.167969 L 20.167969 26.167969 C 19.800781 26.167969 19.5 25.871094 19.5 25.503906 C 19.5 25.132812 19.800781 24.835938 20.167969 24.835938 L 21.5 24.835938 C 21.871094 24.835938 22.167969 25.132812 22.167969 25.503906 C 22.167969 25.871094 21.871094 26.167969 21.5 26.167969 Z M 21.5 23.503906 L 20.167969 23.503906 C 19.800781 23.503906 19.5 23.203125 19.5 22.835938 C 19.5 22.46875 19.800781 22.167969 20.167969 22.167969 L 21.5 22.167969 C 21.871094 22.167969 22.167969 22.46875 22.167969 22.835938 C 22.167969 23.203125 21.871094 23.503906 21.5 23.503906 Z M 21.5 20.835938 L 20.167969 20.835938 C 19.800781 20.835938 19.5 20.535156 19.5 20.167969 C 19.5 19.800781 19.800781 19.5 20.167969 19.5 L 21.5 19.5 C 21.871094 19.5 22.167969 19.800781 22.167969 20.167969 C 22.167969 20.535156 21.871094 20.835938 21.5 20.835938 Z M 25.503906 26.167969 L 24.167969 26.167969 C 23.800781 26.167969 23.503906 25.871094 23.503906 25.503906 C 23.503906 25.132812 23.800781 24.835938 24.167969 24.835938 L 25.503906 24.835938 C 25.871094 24.835938 26.167969 25.132812 26.167969 25.503906 C 26.167969 25.871094 25.871094 26.167969 25.503906 26.167969 Z M 25.503906 23.503906 L 24.167969 23.503906 C 23.800781 23.503906 23.503906 23.203125 23.503906 22.835938 C 23.503906 22.46875 23.800781 22.167969 24.167969 22.167969 L 25.503906 22.167969 C 25.871094 22.167969 26.167969 22.46875 26.167969 22.835938 C 26.167969 23.203125 25.871094 23.503906 25.503906 23.503906 Z M 25.503906 20.835938 L 24.167969 20.835938 C 23.800781 20.835938 23.503906 20.535156 23.503906 20.167969 C 23.503906 19.800781 23.800781 19.5 24.167969 19.5 L 25.503906 19.5 C 25.871094 19.5 26.167969 19.800781 26.167969 20.167969 C 26.167969 20.535156 25.871094 20.835938 25.503906 20.835938 Z M 29.503906 26.167969 L 28.167969 26.167969 C 27.800781 26.167969 27.503906 25.871094 27.503906 25.503906 C 27.503906 25.132812 27.800781 24.835938 28.167969 24.835938 L 29.503906 24.835938 C 29.871094 24.835938 30.171875 25.132812 30.171875 25.503906 C 30.171875 25.871094 29.871094 26.167969 29.503906 26.167969 Z M 29.503906 23.503906 L 28.167969 23.503906 C 27.800781 23.503906 27.503906 23.203125 27.503906 22.835938 C 27.503906 22.46875 27.800781 22.167969 28.167969 22.167969 L 29.503906 22.167969 C 29.871094 22.167969 30.171875 22.46875 30.171875 22.835938 C 30.171875 23.203125 29.871094 23.503906 29.503906 23.503906 Z M 29.503906 20.835938 L 28.167969 20.835938 C 27.800781 20.835938 27.503906 20.535156 27.503906 20.167969 C 27.503906 19.800781 27.800781 19.5 28.167969 19.5 L 29.503906 19.5 C 29.871094 19.5 30.171875 19.800781 30.171875 20.167969 C 30.171875 20.535156 29.871094 20.835938 29.503906 20.835938 Z M 30.171875 17.5 C 30.171875 17.867188 29.871094 18.167969 29.503906 18.167969 L 20.167969 18.167969 C 19.800781 18.167969 19.5 17.867188 19.5 17.5 L 19.5 13.5 C 19.5 13.132812 19.800781 12.832031 20.167969 12.832031 L 29.503906 12.832031 C 29.871094 12.832031 30.171875 13.132812 30.171875 13.5 Z M 30.171875 17.5 " fill-opacity="1" fill-rule="nonzero"/></svg>